<svg xmlns="http://www.w3.org/2000/svg" version="1.1" xlink="http://www.w3.org/1999/xlink" xmlns:svgjs="http://svgjs.com/svgjs" width="100%" height="100%" preserveAspectRatio="xMidYMid meet" viewBox="0 0 146.94505310058594 146.94505310058594" overflow="visible"><defs id="SvgjsDefs5053"></defs><g id="SvgjsG5054" transform="scale(0.515970515970516)" opacity="1"><g id="SvgjsG5055" class="DZxMw0jTR" transform="translate(0, 0) scale(1.0642510272693313)" light-content="false" non-strokable="false" fill="#011628"><path d="M219.6 48.1c-22.9-22.9-53.4-35.5-85.8-35.5S71 25.2 48.1 48.1s-35.5 53.4-35.5 85.8 12.6 62.9 35.5 85.8 53.4 35.5 85.8 35.5 62.9-12.6 85.8-35.5 35.5-53.4 35.5-85.8-12.7-62.9-35.6-85.8z"></path><path d="M133.8 0C59.9 0 0 59.9 0 133.8s59.9 133.8 133.8 133.8 133.8-59.9 133.8-133.8S207.8 0 133.8 0zm0 260.1c-69.7 0-126.3-56.5-126.3-126.3S64.1 7.6 133.8 7.6s126.3 56.5 126.3 126.3-56.5 126.2-126.3 126.2z"></path></g><g id="SvgjsG5056" class="text" transform="translate(141.98496566791502, 175.24469725343323) scale(1)" light-content="true" fill="#ff9f1c"><path d="M64.89 -91.69C63.25 -91.69 61.51 -89.39 59.67 -84.78C58.34 -81.3 55.32 -75.36 50.61 -66.96C45.9 -58.57 40.73 -50.33 35.1 -42.24C19.84 -20.63 8.88 -9.83 2.23 -9.83C0.79 -9.83 -0.44 -10.29 -1.46 -11.21C-2.48 -12.13 -3.28 -13.44 -3.84 -15.13C-4.4 -16.82 -4.81 -18.79 -5.07 -21.04C-5.32 -23.29 -5.45 -25.85 -5.45 -28.72C-5.45 -41.32 -3.05 -58.88 1.77 -81.4C2.59 -85.29 2.99 -87.8 2.99 -88.93C2.99 -91.18 2.07 -92.56 0.23 -93.08C-15.74 -97.68 -29.62 -99.99 -41.39 -99.99C-60.85 -99.99 -70.57 -93.23 -70.57 -79.71L-70.57 -79.1L-70.57 -78.41L-70.57 -77.64C-70.57 -77.38 -70.55 -77.13 -70.5 -76.87C-70.45 -76.62 -70.42 -76.39 -70.42 -76.18C-69.91 -70.96 -67.22 -65.63 -62.36 -60.21C-57.49 -54.78 -51.32 -51.15 -43.85 -49.3C-42.83 -49.1 -41.98 -48.92 -41.32 -48.76C-40.65 -48.61 -40.06 -48.53 -39.55 -48.53C-39.24 -48.53 -39.01 -48.59 -38.86 -48.69C-38.7 -48.79 -38.63 -48.89 -38.63 -48.99C-38.83 -49.92 -39.86 -50.79 -41.7 -51.61C-50.3 -55.5 -56.6 -59.62 -60.59 -63.97C-64.58 -68.32 -66.58 -72.55 -66.58 -76.64C-66.58 -79.92 -65.45 -82.91 -63.2 -85.63C-60.95 -88.34 -57.95 -90.44 -54.22 -91.92C-50.48 -93.41 -46.46 -94.15 -42.16 -94.15C-39.91 -94.15 -37.48 -94.02 -34.86 -93.77C-32.25 -93.51 -29.9 -93.23 -27.8 -92.92C-25.7 -92.61 -23.47 -92.2 -21.12 -91.69C-18.76 -91.18 -16.82 -90.75 -15.28 -90.39C-13.75 -90.03 -12.16 -89.64 -10.52 -89.24C-8.88 -88.83 -7.81 -88.57 -7.3 -88.47C-9.55 -85.81 -13.52 -79.99 -19.2 -71.04C-24.88 -62.08 -30.97 -51.84 -37.48 -40.32C-43.98 -28.8 -49.69 -16.95 -54.6 -4.76C-59.52 7.42 -61.97 17 -61.97 23.96C-61.97 26.21 -61.56 28.52 -60.74 30.87C-59.93 33.23 -59.06 34.4 -58.13 34.4C-57.52 34.4 -57.06 33.64 -56.75 32.1L-56.75 31.95C-56.75 23.04 -54.88 12.8 -51.15 1.23C-47.41 -10.34 -42.6 -21.66 -36.71 -32.71C-30.82 -43.77 -25.29 -53.5 -20.12 -61.9C-14.95 -70.29 -9.96 -77.77 -5.15 -84.32C-10.16 -63.13 -12.67 -44.28 -12.67 -27.8C-12.67 -19.61 -11.8 -13.13 -10.06 -8.37C-8.32 -3.61 -5.55 -1.23 -1.77 -1.23C6.94 -1.33 20.45 -14.39 38.78 -40.39C41.96 -44.9 45.13 -49.76 48.3 -54.98C51.48 -60.21 54.27 -64.92 56.67 -69.12C59.08 -73.31 60.64 -75.92 61.36 -76.95C61.97 -72.65 62.28 -68.3 62.28 -63.89C62.28 -58.06 61.79 -52.17 60.82 -46.23C59.85 -40.29 58.42 -34.25 56.52 -28.11C54.63 -21.96 52.86 -16.64 51.22 -12.13C49.58 -7.63 47.43 -2.2 44.77 4.15C44.67 4.45 43.11 5.58 40.09 7.53C37.07 9.47 35.56 11.11 35.56 12.44C35.56 13.06 35.81 13.62 36.32 14.13C36.83 14.64 37.42 15.03 38.09 15.28C38.75 15.54 39.34 15.67 39.86 15.67C40.88 15.67 42.06 15.33 43.39 14.67C44.72 14 46.05 13.16 47.38 12.13C48.71 11.11 50.2 9.86 51.84 8.37C53.47 6.89 55.06 5.43 56.6 3.99C58.13 2.56 59.87 1.02 61.82 -0.61C63.77 -2.25 65.61 -3.63 67.35 -4.76C70.11 -6.6 71.5 -7.94 71.5 -8.75C71.5 -8.86 71.29 -8.96 70.88 -9.06C70.47 -9.06 69.93 -8.98 69.27 -8.83C68.6 -8.68 67.81 -8.4 66.89 -7.99C60.74 -5.63 54.86 -2.25 49.23 2.15C52.3 -3.28 55.06 -8.96 57.52 -14.9C59.98 -20.84 62.1 -26.9 63.89 -33.1C65.69 -39.29 67.04 -45.64 67.96 -52.14C68.88 -58.65 69.35 -65.02 69.35 -71.27C69.35 -84.88 67.86 -91.69 64.89 -91.69Z"></path></g><g id="SvgjsG5057" class="xmgfi-cYu" transform="translate(-13.326038051442296, 93.43942167889162) scale(1.0341947619496263) rotate(180, 51.98770591800527, 49.01803705104838)" light-content="true" non-strokable="false" fill="#ff9f1c"><path d="M37.556 29.177l23.56 21.491c3.564 3.251 8.884-2.038 5.303-5.304l-23.56-21.491c-3.564-3.251-8.883 2.038-5.303 5.304z"></path><path d="M61.039 45.364a258287.75 258287.75 0 0 0-23.407 23.408c-3.422 3.423 1.881 8.726 5.304 5.303l23.406-23.407c3.423-3.423-1.88-8.727-5.303-5.304z"></path></g><g id="SvgjsG5058" class="jYc6V5BB3" transform="translate(192.2668190914149, 93.43942167889159) scale(1.0341947619496263)" light-content="true" non-strokable="false" fill="#ff9f1c"><path d="M37.556 29.177l23.56 21.491c3.564 3.251 8.884-2.038 5.303-5.304l-23.56-21.491c-3.564-3.251-8.883 2.038-5.303 5.304z"></path><path d="M61.039 45.364a258287.75 258287.75 0 0 0-23.407 23.408c-3.422 3.423 1.881 8.726 5.304 5.303l23.406-23.407c3.423-3.423-1.88-8.727-5.303-5.304z"></path></g></g></svg>